<?xml version="1.0" encoding="UTF-8"?>
<svg xmlns="http://www.w3.org/2000/svg" xmlns:xlink="http://www.w3.org/1999/xlink" width="216pt" height="216pt" viewBox="0 0 216 216" version="1.1">
<defs>
<clipPath id="clip1">
  <path d="M 2.738281 0 L 217 0 L 217 214.261719 L 2.738281 214.261719 Z M 2.738281 0 "/>
</clipPath>
</defs>
<g id="surface190">
<g clip-path="url(#clip1)" clip-rule="nonzero">
<path style=" stroke:none;fill-rule:nonzero;fill:rgb(17.254902%,11.764706%,9.019608%);fill-opacity:1;" d="M 2.738281 0 L 73.824219 0 L 73.824219 71.085938 L 2.738281 71.085938 Z M 2.738281 0 "/>
<path style=" stroke:none;fill-rule:nonzero;fill:rgb(21.176471%,14.117647%,11.372549%);fill-opacity:1;" d="M 73.828125 0 L 144.914063 0 L 144.914063 71.085938 L 73.828125 71.085938 Z M 73.828125 0 "/>
<path style=" stroke:none;fill-rule:nonzero;fill:rgb(36.470588%,81.568627%,72.54902%);fill-opacity:1;" d="M 144.914063 0 L 216 0 L 216 71.085938 L 144.914063 71.085938 Z M 144.914063 0 "/>
<path style=" stroke:none;fill-rule:nonzero;fill:rgb(45.098039%,84.313725%,94.901961%);fill-opacity:1;" d="M 2.738281 71.085938 L 73.824219 71.085938 L 73.824219 142.171875 L 2.738281 142.171875 Z M 2.738281 71.085938 "/>
<path style=" stroke:none;fill-rule:nonzero;fill:rgb(46.27451%,89.803922%,100%);fill-opacity:1;" d="M 73.828125 71.085938 L 144.914063 71.085938 L 144.914063 142.171875 L 73.828125 142.171875 Z M 73.828125 71.085938 "/>
<path style=" stroke:none;fill-rule:nonzero;fill:rgb(54.117647%,56.862745%,41.176471%);fill-opacity:1;" d="M 144.914063 71.085938 L 216 71.085938 L 216 142.171875 L 144.914063 142.171875 Z M 144.914063 71.085938 "/>
<path style=" stroke:none;fill-rule:nonzero;fill:rgb(74.509804%,92.941176%,45.098039%);fill-opacity:1;" d="M 2.738281 142.171875 L 73.824219 142.171875 L 73.824219 213.257813 L 2.738281 213.257813 Z M 2.738281 142.171875 "/>
<path style=" stroke:none;fill-rule:nonzero;fill:rgb(80.784314%,97.647059%,71.764706%);fill-opacity:1;" d="M 73.828125 142.171875 L 144.914063 142.171875 L 144.914063 213.257813 L 73.828125 213.257813 Z M 73.828125 142.171875 "/>
<path style=" stroke:none;fill-rule:nonzero;fill:rgb(100%,45.098039%,0%);fill-opacity:1;" d="M 144.914063 142.171875 L 216 142.171875 L 216 213.257813 L 144.914063 213.257813 Z M 144.914063 142.171875 "/>
</g>
</g>
</svg>
